<?xml version="1.0" encoding="utf-8"?>
<!-- Generator: Adobe Illustrator 21.1.0, SVG Export Plug-In . SVG Version: 6.00 Build 0)  -->
<svg version="1.1" id="design" xmlns="http://www.w3.org/2000/svg" xmlns:xlink="http://www.w3.org/1999/xlink" x="0px" y="0px"
	 width="1400px" height="980px" viewBox="0 0 1400 980" enable-background="new 0 0 1400 980" xml:space="preserve">
<rect fill="#FFFFFF" width="1400" height="980"/>
<rect fill="#F5F5F5" width="210" height="980"/>
<rect x="1190" fill="#F5F5F5" width="210" height="980"/>
<g>
	<polygon fill="#0089FA" points="1073.2,702.5 1072.8,740.5 1099.3,758.4 1105,757.9 1105,799.1 1073.9,818.5 1073.9,855.4 
		1037.5,876.9 1005.8,856.8 970,876.9 963.9,863.6 966.6,809.4 968.7,747.4 1027.3,711.9 1058.7,704 	"/>
	<polygon fill="#00E9FE" points="1072.7,701.8 1039.2,682.6 1006.8,700.6 976.5,682.9 938.4,702.6 938.4,702.7 969.3,721.9 
		938.4,740 971.7,761.3 1004.9,740.8 1036.6,760.2 1070.6,738.8 1043.5,722.1 1042.5,721.4 1073.4,702.7 	"/>
	<polygon fill="#00E9FE" points="974.1,799.2 1004.8,817.3 1035.8,795.1 1007.2,777.4 	"/>
	<polygon fill="#00E9FE" points="1073.7,741.1 1073.7,776.6 1105.4,757.9 	"/>
	<path fill="none" d="M905.6,760.3l32.8,19.1L905.6,760.3z"/>
	<polygon fill="#00E9FE" points="938.4,740 905.6,760.3 938.4,779.4 	"/>
	<polygon fill-rule="evenodd" clip-rule="evenodd" fill="#00ADFF" points="938.6,702.9 969.1,721.9 938.4,740 	"/>
	<polygon fill-rule="evenodd" clip-rule="evenodd" fill="#00ADFF" points="938.4,740 971.6,761.3 971.4,797.1 1004.4,817.3 
		1003.6,856.4 969.8,836.7 969.8,876.3 937.9,860 937.6,821.9 905.1,801.7 905.1,760.2 938.1,779.2 	"/>
	<polygon fill-rule="evenodd" clip-rule="evenodd" fill="#00ADFF" points="1006.2,741.8 1006.7,777.4 1035.8,795.3 1036.6,760.5 	
		"/>
	<path fill-rule="evenodd" clip-rule="evenodd" fill="#00ADFF" d="M1005.6,856.4"/>
	<polyline fill-rule="evenodd" clip-rule="evenodd" fill="#00ADFF" points="1005.8,856.8 1036.3,835.7 1037.1,835.2 1037.1,876.9 	
		"/>
</g>
<g>
	<path fill="#F28E00" d="M788.6,808.5v30.1l-91.7,52.9v-30.1C742.8,835,788.6,808.5,788.6,808.5z"/>
	<path fill="#B01D5F" d="M779.6,803.3c-18.5,10.7-61.1,35.3-82.7,47.8v-27.6c45.9-26.4,91.7-52.9,91.7-52.9v27.6
		C788.6,798.2,785.2,800.1,779.6,803.3z"/>
	<path fill="#241A8C" d="M779.6,765.4c-18.5,10.7-61.1,35.3-82.8,47.8v-27.6l91.7-52.9v27.6C788.6,760.2,785.2,762.2,779.6,765.4z"
		/>
	<polygon fill="#241A8C" points="696.9,730.5 676.7,742.1 658.8,731.8 696.9,709.8 696.9,730.5 	"/>
	<polygon fill="#3023BD" points="735,731.8 717.1,742.1 696.9,730.5 696.9,730.5 696.9,709.8 	"/>
	<path fill="#FFB404" d="M696.9,861.4v30.1l-91.7-52.9v-30.1C605.2,808.5,651,835,696.9,861.4z"/>
	<path fill="#3023BD" d="M696.9,813.2c-21.6-12.5-64.2-37.1-82.7-47.8c-5.6-3.2-9-5.2-9-5.2v-27.6l91.7,52.9V813.2z"/>
	<path fill="#CC226F" d="M696.9,823.5v27.6c-21.6-12.5-64.2-37.1-82.7-47.8c-5.6-3.2-9-5.2-9-5.2v-27.6
		C605.2,770.6,651,797.1,696.9,823.5z"/>
	<g>
		<path fill="#FFD104" d="M779.6,803.3l9,5.2c0,0-45.9,26.5-91.7,52.9c-45.9-26.4-91.7-52.9-91.7-52.9l9-5.2
			c18.5,10.7,61.1,35.3,82.7,47.8C718.5,838.6,761.1,814,779.6,803.3z"/>
		<path fill="#FF2D8B" d="M779.6,765.4l9,5.2c0,0-45.9,26.5-91.7,52.9c-45.9-26.4-91.7-52.9-91.7-52.9l9-5.2
			c18.5,10.7,61.1,35.3,82.7,47.8C718.5,800.7,761.1,776.1,779.6,765.4z"/>
		<path fill="#4A5FFF" d="M788.6,732.7l-91.7,52.9l-91.7-52.9l91.7-53L788.6,732.7z M735,731.8l-38.1-22l-38.1,22l38.1,22L735,731.8
			z"/>
	</g>
</g>
<g>
	<g>
		<polygon fill="#B770FF" points="424.5,701.8 424.5,701.7 424.5,701.7 386.3,679.7 348.2,701.7 348.2,701.8 386.3,723.8 		"/>
		<polygon fill="#FF2D8B" points="332.8,754.7 371,732.7 371,732.7 332.8,710.6 294.6,732.6 332.8,754.7 		"/>
		<polygon fill="#FFD104" points="386.3,741.5 348.2,763.6 386.3,785.6 424.5,763.6 		"/>
		<polygon fill="#B2FF59" points="401.7,732.7 401.7,732.7 439.9,754.7 478.1,732.6 439.9,710.6 		"/>
	</g>
	<g>
		<polygon fill="#7226BA" points="386.3,723.8 386.3,741.5 401.7,750.4 401.7,732.7 401.7,732.7 424.5,719.5 424.5,701.8 
			386.3,723.8 		"/>
		<polygon fill="#B01D5F" points="332.8,754.7 332.8,860.6 348.2,851.7 348.2,763.6 371,750.4 371,732.7 332.8,754.7 		"/>
		<polygon fill="#80CC27" points="439.9,754.7 439.9,860.6 478.1,838.6 478.1,732.6 		"/>
		<polygon fill="#F28E00" points="386.3,891.5 424.5,869.5 424.5,763.6 386.3,785.6 		"/>
	</g>
	<g>
		<polygon fill="#9B37FF" points="348.2,719.5 348.2,719.5 371,732.7 371,732.7 371,750.4 386.3,741.5 386.3,723.8 386.3,723.8 
			348.2,701.8 		"/>
		<polygon fill="#94F029" points="401.7,732.7 401.7,750.4 424.5,763.6 424.5,851.7 439.8,860.6 439.9,798.8 439.9,754.7 		"/>
		<polygon fill="#FFB404" points="348.2,869.5 386.3,891.5 386.3,785.6 348.2,763.6 		"/>
		<polygon fill="#CC226F" points="294.6,838.6 332.8,860.6 332.8,754.7 332.8,754.7 294.6,732.6 		"/>
	</g>
</g>
<g>
	<polygon fill="#3C33FF" points="1005.3,490 1005.3,490 931.1,532.8 931.1,470.6 964.8,490 964.8,490 985,478.3 985,454.9 
		951.3,435.5 1005.3,404.3 	"/>
	<polygon fill="#E169FF" points="1005.3,536.8 985,525.1 985,525.1 1005.3,513.4 1025.5,525.1 	"/>
	<polygon fill="#DA42FF" points="964.7,466.6 985,454.9 985,478.3 964.8,490 	"/>
	<polygon fill="#C736EB" points="1045.8,466.6 1045.8,490 1079.4,470.6 1079.4,532.8 1079.4,532.8 1025.5,563.9 1025.5,525.1 
		1005.3,536.8 1005.3,595.9 1097,543 1097,437 	"/>
	<polygon fill="#DA42FF" points="1045.8,466.6 1045.8,490 1025.5,478.3 1025.5,454.9 	"/>
	<polygon fill="#3023BD" points="1045.8,490 1079.4,470.6 1079.4,532.8 1079.4,532.8 1005.3,490 1005.3,490 1005.3,404.3 
		1059.2,435.5 1025.5,454.9 1025.5,454.9 1025.5,478.3 	"/>
	<polygon fill="#B130D1" points="985,525.1 985,563.9 931.1,532.8 931.1,470.6 964.8,490 964.7,466.6 913.5,437 913.5,543 
		1005.3,595.9 1005.3,536.8 	"/>
	<polygon fill="#4A5FFF" points="1025.5,525.1 1005.3,513.4 985,525.1 985,525.1 985,563.9 931.1,532.8 1005.3,490 1079.4,532.8 
		1025.5,563.9 	"/>
	<polygon fill="#E169FF" points="1045.8,466.6 1025.5,454.9 1025.5,454.9 1059.2,435.5 1005.3,404.3 951.3,435.5 985,454.9 
		964.7,466.6 913.5,437 1005.3,384.1 1097,437 	"/>
</g>
<g>
	<polygon fill="#FFD104" points="738,406.2 738,406.1 738,406.1 699.8,384.1 661.6,406.1 661.6,406.2 699.8,428.2 	"/>
	<polygon fill="#80CC27" points="753.3,520.9 753.3,520.9 753.3,565 753.4,565 791.5,543 791.5,498.9 791.5,498.9 	"/>
	<polygon fill="#CC226F" points="608.1,498.9 608.1,543 646.2,565 646.3,565 646.3,520.9 608.1,498.9 	"/>
	<polygon fill="#9B37FF" points="608.1,437 608.1,481.1 661.7,512 661.6,512 661.6,573.9 699.8,595.9 699.8,490 	"/>
	<polygon fill="#7226BA" points="791.5,437 699.8,490 699.8,595.9 738,573.9 738,512 791.5,481.1 	"/>
	<polygon fill="#B770FF" points="753.4,415 699.8,445.9 699.8,445.9 646.2,415 608.1,437 699.8,490 791.5,437 	"/>
	<polygon fill="#B2FF59" points="738,512 738,512 753.3,520.9 753.3,520.9 753.3,520.9 791.5,498.9 776.1,490 	"/>
	<polygon fill="#FF2D8B" points="623.5,490 608.1,498.9 646.3,520.9 661.6,512 	"/>
	<polygon fill="#F28E00" points="699.8,428.2 699.8,445.9 738,423.9 738,406.2 699.8,428.2 	"/>
	<polygon fill="#FFB404" points="661.6,423.9 661.6,423.9 699.8,445.9 699.8,428.2 699.8,428.2 661.6,406.2 	"/>
	<polygon fill="#B01D5F" points="646.3,520.9 646.3,565 661.6,556.1 661.6,512 	"/>
	<polygon fill="#94F029" points="738,512 738,556.1 753.3,565 753.3,520.9 753.3,520.9 	"/>
</g>
<g>
	<polygon fill="#4A5FFF" points="437,519.3 437,519.2 457.2,530.9 457.2,531 386.3,571.9 386.3,571.9 315.5,530.9 335.7,519.2 
		335.7,519.3 386.3,548.5 386.4,548.5 	"/>
	<polygon fill="#3C33FF" points="457.2,449.1 457.2,530.9 437,519.2 437,519.2 437,460.8 415.9,448.6 386.4,465.7 386.3,465.7 
		386.3,408.1 457.2,449.1 	"/>
	<polygon fill="#3023BD" points="335.7,460.8 335.7,519.2 315.5,530.9 315.4,530.9 315.4,530.9 315.4,449.1 315.5,449.1 
		386.3,408.1 386.3,465.7 356.8,448.6 	"/>
	<polygon fill="#3023BD" points="457.3,530.9 457.2,530.9 457.2,449.1 457.3,449.1 478.1,437 478.1,543 386.3,595.9 386.3,571.9 
		457.2,531 	"/>
	<polygon fill="#0089FA" points="437,519.2 437,519.3 386.4,548.5 386.3,548.5 386.3,490 437,460.8 	"/>
	<polygon fill="#3C33FF" points="386.3,571.9 386.3,595.9 294.6,543 294.6,437 315.4,449.1 315.4,449.1 315.4,530.9 315.4,530.9 
		315.5,530.9 386.3,571.9 	"/>
	<polygon fill="#00ADFF" points="386.3,490 386.3,548.5 335.7,519.3 335.7,519.2 335.7,460.8 	"/>
	<polygon fill="#00E9FE" points="386.3,465.7 386.4,465.7 415.9,448.6 437,460.8 386.3,490 335.7,460.8 356.8,448.6 	"/>
	<polygon fill="#4A5FFF" points="457.2,449.1 386.3,408.1 315.5,449.1 315.4,449.1 294.6,437 386.3,384.1 478.1,437 457.3,449.1 	
		"/>
</g>
<g>
	<g>
		<polygon fill="#B01D5F" points="1005.3,265.9 1097,213 1097,250.2 1005.3,303.2 		"/>
		<polygon fill="#F28E00" points="1005.3,236.5 1005.3,197.3 1097,144.3 1097,183.6 		"/>
		<polygon fill="#B01D5F" points="971.3,177.6 971.3,216.9 945.8,231.6 945.8,163 1037.5,110 1037.5,139.4 		"/>
	</g>
	<g>
		<polygon fill="#FFB404" points="1005.3,197.3 1005.3,236.5 971.3,216.9 971.3,177.6 		"/>
		<polygon fill="#CC226F" points="1005.3,265.9 1005.3,303.2 913.5,250.2 913.5,144.3 945.8,163 945.8,231.6 		"/>
	</g>
	<g>
		<polygon fill="#FF2D8B" points="1005.3,236.5 971.3,216.9 945.8,231.6 1005.3,265.9 1097,213 1071.5,198.2 		"/>
		<polygon fill="#FF2D8B" points="1037.5,110 1005.3,91.4 913.5,144.3 945.8,163 		"/>
		<polygon fill="#FFD104" points="971.3,177.6 1005.3,197.3 1097,144.3 1063,124.7 		"/>
	</g>
</g>
<g>
	<polygon fill="#3023BD" points="666.4,176.7 666.4,212.1 635,230.2 635,158.7 696.9,122.9 696.9,159.2 	"/>
	<polygon fill="#00ADFF" points="696.9,300.3 605.2,247.3 605.2,141.4 635,158.7 635,230.2 696.9,265.5 	"/>
	<polygon fill="#FFB404" points="696.9,229.7 666.4,212.1 666.4,176.7 696.9,194.4 	"/>
	<polygon fill="#4A5FFF" points="758.7,230.2 727.4,212.1 696.9,229.7 666.4,212.1 635,230.2 696.9,265.5 	"/>
	<polygon fill="#3C33FF" points="696.9,159.2 727.4,176.7 727.4,212.1 758.7,230.2 758.7,158.7 696.9,122.9 	"/>
	<polygon fill="#0089FA" points="696.9,300.3 788.6,247.3 788.6,141.4 758.7,158.7 758.7,230.2 696.9,265.5 	"/>
	<polygon fill="#F28E00" points="696.9,229.7 727.4,212.1 727.4,176.7 696.9,194.4 	"/>
	<polygon fill="#00E9FE" points="758.7,158.7 788.6,141.4 696.9,88.5 605.2,141.4 635,158.7 696.9,122.9 	"/>
	<polygon fill="#FFD104" points="696.9,159.2 666.4,176.7 696.9,194.4 727.4,176.8 	"/>
</g>
<g>
	<polygon fill="#00ADFF" points="441.6,226.3 441.6,268.4 422.8,257.6 422.8,237.2 422.8,237.2 404,226.3 422.8,215.4 	"/>
	<polygon fill="#3C33FF" points="441.6,162.5 441.6,204.6 422.8,193.8 422.8,173.3 422.8,173.3 405.1,163.1 405.1,141.4 	"/>
	<polygon fill="#CC226F" points="386.3,130.6 386.3,152.3 367.6,163.1 367.6,141.4 367.5,141.4 349.9,131.2 349.9,109.9 350,109.6 
		386.3,130.6 	"/>
	<polygon fill="#FFB404" points="386.3,194.4 386.3,236.5 368.7,226.3 349.9,215.4 349.9,215.4 349.9,193.8 349.9,173.3 	"/>
	<polygon fill="#94F029" points="386.3,258.2 386.3,300.3 349.9,279.3 349.9,257.6 349.9,237.2 349.9,237.1 386.3,258.2 	"/>
	<polygon fill="#9B37FF" points="331.1,226.3 331.1,268.4 294.6,247.3 294.6,205.3 	"/>
	<polygon fill="#C736EB" points="331.1,162.5 331.1,204.6 313.4,194.4 294.6,183.6 294.6,141.4 	"/>
	<polygon fill="#7226BA" points="349.9,215.4 368.7,226.3 349.9,237.1 349.9,237.1 349.9,237.2 349.9,257.6 331.1,268.4 
		331.1,226.3 	"/>
	<polygon fill="#B01D5F" points="405.1,141.4 405.1,163.1 386.3,152.3 386.3,130.6 386.4,130.6 422.8,109.5 422.8,131.2 	"/>
	<polygon fill="#B130D1" points="367.5,141.4 331.1,162.5 331.1,204.6 331.1,204.6 349.9,193.8 349.9,173.3 367.6,163.1 
		367.6,141.4 	"/>
	<polygon fill="#F28E00" points="422.8,193.8 422.8,215.4 404,226.3 386.4,236.5 386.3,236.5 386.3,236.5 386.3,194.4 422.8,173.3 	
		"/>
	<polygon fill="#3023BD" points="441.6,162.5 478.1,141.4 478.1,183.6 459.3,194.4 441.6,204.6 	"/>
	<polygon fill="#0089FA" points="441.6,226.3 478.1,205.3 478.1,247.3 441.6,268.4 	"/>
	<polygon fill="#80CC27" points="422.8,257.6 422.8,279.3 386.3,300.3 386.3,258.2 386.4,258.2 422.8,237.2 422.8,237.2 	"/>
	<polygon fill="#00E9FE" points="441.6,204.6 459.3,194.4 478.1,205.3 441.6,226.3 422.8,215.4 422.8,193.8 	"/>
	<polygon fill="#B2FF59" points="404,226.3 386.4,236.5 386.3,236.5 386.3,236.5 368.7,226.3 349.9,237.1 386.3,258.2 386.4,258.2 
		422.8,237.2 	"/>
	<polygon fill="#B770FF" points="349.9,215.4 349.9,215.4 331.1,226.3 294.6,205.3 294.6,205.2 313.4,194.4 331.1,204.6 
		331.1,204.7 331.1,204.6 349.9,193.8 	"/>
	<polygon fill="#FFD104" points="405.1,163.1 422.8,173.3 422.8,173.3 386.3,194.4 349.9,173.3 367.6,163.1 386.3,152.3 	"/>
	<polygon fill="#4A5FFF" points="422.8,131.2 441.6,120.4 478.1,141.4 441.6,162.5 405.1,141.4 	"/>
	<polygon fill="#FF2D8B" points="386.3,130.6 350,109.6 349.9,109.5 386.3,88.5 422.8,109.5 386.4,130.6 	"/>
	<polygon fill="#E169FF" points="349.9,131.2 367.5,141.4 331.1,162.5 294.6,141.4 331.1,120.4 	"/>
</g>
<g>
	<g>
		<path fill="#E0E0E0" d="M151,268.3l-17.1,20.2c-5.3-7.3-13.4-12-20.2-12c-10.7,0-18.5,8.5-18.5,20.4c0,12,7.8,20.6,18.5,20.6
			c6.4,0,14.4-3.9,20.2-10.2l17.1,18.2c-9.9,10.8-25.1,17.8-38.8,17.8c-27.4,0-47.2-19.5-47.2-46.1c0-26.2,20.4-45.3,48.4-45.3
			C126.9,252,141.8,258.4,151,268.3z"/>
		<path fill="#E0E0E0" d="M149.7,437.9c0,23.7-16.7,39.1-42.5,39.1c-26,0-43.1-15.4-43.1-39.1v-51.4h29.5v51.4
			c0,8.8,6.4,14.5,13.7,14.5c7.3,0,12.9-5.6,12.9-14.5v-51.4h29.5V437.9z"/>
		<path fill="#E0E0E0" d="M112.3,520.2c21.5,0,35.4,8.9,35.4,22.5c0,8.8-5.9,16.3-15,19.1c10.7,2.4,17.7,11.3,17.7,22.5
			c0,15.3-14.1,25.1-35.9,25.1H67.1v-89.2H112.3z M96.5,554.5h14.1c4.1,0,6.7-2.5,6.7-6.5c0-3.8-2.7-6.2-6.7-6.2H96.5V554.5z
			 M96.5,587.7h14.1c5.5,0,9-2.8,9-7.1c0-3.9-3.6-6.5-9-6.5H96.5V587.7z"/>
		<path fill="#E0E0E0" d="M98.8,676.2v10.9h41.7v22.4H98.8v11.1h47.1V743H69.3v-89.2h75.5v22.4H98.8z"/>
		<path fill="#E0E0E0" d="M148.5,796.7l-10.7,22.4c-9-5-22.9-10.4-30.7-10.4c-3.3,0-5.5,1-5.5,3.7c0,11.2,46.2,4.2,46.2,36.5
			c0,19.9-17.4,28.6-37.5,28.6c-15.5,0-32.8-5.2-44.7-14.3l10.9-22.1c9.2,7.6,24.9,13.9,34,13.9c4.3,0,7.1-1.4,7.1-4.6
			c0-11.6-46.2-3.9-46.2-35.3c0-17.8,15-29,38.2-29C123.8,786.2,138.4,790.4,148.5,796.7z"/>
	</g>
	<g>
		<path fill="#E0E0E0" d="M85.4,126.6c7.5,1.8,13,7.6,13,16.5c0,11.6-9.3,19.8-23.8,19.8c-8.9,0-18.2-3.1-24-7.9l7.8-14.9
			c4.5,5.5,9.4,8.3,14.6,8.3c4.1,0,6.1-1.7,6.1-5.2c0-3.5-2-5.2-6.1-5.2H62.3v-10.3l11.3-10.8H53.8v-14.3h41.9v11L82.9,126
			L85.4,126.6z"/>
		<path fill="#E0E0E0" d="M130.8,102.5c19.6,0,32.3,11.6,32.3,29.7s-13,29.8-33.1,29.8h-25.8v-59.5H130.8z M124,146.7h7.4
			c7.1,0,11.7-5.6,11.7-14.3c0-8.8-5-14.6-12.6-14.6H124V146.7z"/>
	</g>
</g>
</svg>
