<svg fill="none" height="800" viewBox="0 0 24 24" width="800" xmlns="http://www.w3.org/2000/svg"><path d="m16.6582 9.28638c1.4398.89982 2.1596 1.34972 2.4065 1.92582.2156.503.2156 1.0725 0 1.5756-.2469.576-.9667 1.0259-2.4065 1.9258l-6.7622 4.2264c-1.59795.9987-2.39693 1.4981-3.05627 1.445-.57472-.0462-1.10155-.3381-1.44533-.801-.3944-.531-.3944-1.4732-.3944-3.3576v-8.45283c0-1.88438 0-2.82656.3944-3.35759.34378-.46288.87061-.75487 1.44533-.80108.65934-.053 1.45832.44636 3.05627 1.44508z" stroke="#000" stroke-linejoin="round" stroke-width="2"/></svg>